<?xml version="1.0" encoding="UTF-8"?>
<svg width="216px" height="219px" viewBox="0 0 216 219" version="1.1" xmlns="http://www.w3.org/2000/svg" xmlns:xlink="http://www.w3.org/1999/xlink">
    <!-- Generator: Sketch 44 (41411) - http://www.bohemiancoding.com/sketch -->
    <title>shutterstock_502815355</title>
    <desc>Created with Sketch.</desc>
    <defs></defs>
    <g id="Welcome" stroke="none" stroke-width="1" fill="none" fill-rule="evenodd">
        <g id="Success" transform="translate(-600.000000, -152.000000)">
            <g id="icon" transform="translate(600.000000, 152.000000)">
                <g id="shutterstock_502815355">
                    <path d="M71.1037212,10.2396107 C70.6260288,10.2396107 70.156125,10.045232 69.818625,9.7080497 C69.4785288,9.3713858 69.2864135,8.90202604 69.2864135,8.42540947 C69.2864135,7.94827456 69.4785288,7.47943314 69.818625,7.14225089 C70.156125,6.80558698 70.6234327,6.61120828 71.1037212,6.61120828 C71.5814135,6.61120828 72.0487212,6.80558698 72.3862212,7.14225089 C72.7263173,7.47943314 72.9210288,7.94827456 72.9210288,8.42540947 C72.9210288,8.90202604 72.7263173,9.3713858 72.3862212,9.7080497 C72.0487212,10.045232 71.5814135,10.2396107 71.1037212,10.2396107" id="Fill-3" fill="#FFFFFF"></path>
                    <path d="M74.7289904,20.1858391 C73.98675,20.1858391 73.2899423,19.728142 73.0212404,18.9915763 L71.6198365,15.1480615 C71.276625,14.2064911 71.7628846,13.1653988 72.7060673,12.822774 C73.6484712,12.4798899 74.6918654,12.9653183 75.0350769,13.9071479 L76.4364808,17.7506627 C76.7799519,18.691974 76.2936923,19.7330663 75.3505096,20.0756911 C75.1454135,20.1503325 74.9353846,20.1858391 74.7289904,20.1858391" id="Fill-4" fill="#FFFFFF"></path>
                    <path d="M80.0209904,34.7007444 C79.27875,34.7007444 78.5819423,34.2433065 78.3132404,33.5067408 L75.1934423,24.9491538 C74.8499712,24.0078426 75.3364904,22.9667503 76.2794135,22.6241254 C77.2225962,22.2807231 78.2654712,22.7666698 78.6086827,23.7082402 L81.7287404,32.265568 C82.0719519,33.2071385 81.5856923,34.2482308 80.6425096,34.5908556 C80.4374135,34.665497 80.2273846,34.7007444 80.0209904,34.7007444" id="Fill-5" fill="#FFFFFF"></path>
                    <path d="M38.701125,28.9362497 C38.2234327,28.9362497 37.7535288,28.741871 37.4160288,28.4046888 C37.0785288,28.065174 36.8838173,27.5989243 36.8838173,27.1191976 C36.8838173,26.6425811 37.0785288,26.175813 37.4160288,25.8362982 C37.7535288,25.4993751 38.2234327,25.3078473 38.701125,25.3078473 C39.1788173,25.3078473 39.6487212,25.4993751 39.9862212,25.8362982 C40.3237212,26.175813 40.5184327,26.6425811 40.5184327,27.1191976 C40.5184327,27.5989243 40.3237212,28.065174 39.9862212,28.4046888 C39.6487212,28.741871 39.1788173,28.9362497 38.701125,28.9362497" id="Fill-6" fill="#FFFFFF"></path>
                    <path d="M45.4007596,36.9044805 C44.8823077,36.9044805 44.3672308,36.6841846 44.0079231,36.2565515 L41.4823846,33.2519751 C40.8372404,32.4843089 40.9377115,31.3400663 41.7064327,30.6960249 C42.4751538,30.0517243 43.6213558,30.1520237 44.2667596,30.9196899 L46.7920385,33.9242663 C47.4371827,34.6916734 47.3369712,35.8361751 46.56825,36.4802166 C46.2276346,36.7653053 45.8130288,36.9044805 45.4007596,36.9044805" id="Fill-7" fill="#FFFFFF"></path>
                    <path d="M55.4626731,48.8753574 C54.9442212,48.8753574 54.4291442,48.6548024 54.0698365,48.2271692 L48.4595481,41.5527231 C47.8144038,40.7850568 47.914875,39.6408142 48.6835962,38.9967728 C49.4520577,38.3527314 50.5985192,38.4527716 51.2439231,39.2204379 L56.8539519,45.894884 C57.4990962,46.6625503 57.3988846,47.8067929 56.6299038,48.4508343 C56.2895481,48.7361822 55.8749423,48.8753574 55.4626731,48.8753574" id="Fill-8" fill="#FFFFFF"></path>
                    <path d="M15.53175,58.0699882 C15.2233269,58.0699882 14.9110096,57.9917183 14.6249135,57.826626 L13.7500096,57.3225373 C12.8808173,56.8215586 12.5830385,55.712045 13.0846154,54.8443385 C13.5867115,53.9763728 14.698125,53.6796213 15.5673173,54.1800817 L16.4422212,54.6841704 C17.3114135,55.1854083 17.6091923,56.2949219 17.1073558,57.1626284 C16.7706346,57.7447278 16.1597596,58.0699882 15.53175,58.0699882" id="Fill-9" fill="#FFFFFF"></path>
                    <path d="M23.7065192,62.7817278 C23.3980962,62.7817278 23.0857788,62.7031988 22.7994231,62.5383657 L19.5861635,60.6863254 C18.7169712,60.1850876 18.4191923,59.0758331 18.9210288,58.2081266 C19.4228654,57.3401609 20.5345385,57.0428911 21.4034712,57.544129 L24.6167308,59.3961692 C25.4859231,59.8971479 25.7837019,61.0064024 25.2818654,61.874368 C24.9454038,62.4562083 24.3345288,62.7817278 23.7065192,62.7817278" id="Fill-10" fill="#FFFFFF"></path>
                    <path d="M37.2387115,70.5809787 C36.9302885,70.5809787 36.6179712,70.5027089 36.3316154,70.3376166 L28.3980288,65.7650521 C27.5288365,65.2640734 27.2310577,64.1545598 27.7328942,63.2868533 C28.2347308,62.4188876 29.3464038,62.1218769 30.2153365,62.6228556 L38.1489231,67.1954201 C39.0181154,67.6963988 39.3158942,68.8059124 38.8140577,69.6736189 C38.4775962,70.2557183 37.8667212,70.5809787 37.2387115,70.5809787" id="Fill-11" fill="#FFFFFF"></path>
                    <path d="M1.87468269,92.679245 C1.39699038,92.679245 0.927086538,92.4848663 0.589586538,92.1482024 C0.252086538,91.8086876 0.057375,91.3419195 0.057375,90.8650438 C0.057375,90.3855763 0.252086538,89.9193266 0.589586538,89.5824036 C0.927086538,89.2428888 1.39699038,89.0508426 1.87468269,89.0508426 C2.35497115,89.0508426 2.82227885,89.2428888 3.15977885,89.5824036 C3.49727885,89.9193266 3.69199038,90.3855763 3.69199038,90.8650438 C3.69199038,91.3419195 3.49727885,91.8086876 3.15977885,92.1482024 C2.82227885,92.4848663 2.352375,92.679245 1.87468269,92.679245" id="Fill-12" fill="#FFFFFF"></path>
                    <path d="M13.6838077,94.7570237 C13.5789231,94.7570237 13.4727404,94.7479527 13.3660385,94.7292923 L6.95976923,93.6016367 C5.97115385,93.4274734 5.31121154,92.4866805 5.48541346,91.5000142 C5.65961538,90.5130888 6.60279808,89.8537562 7.59063462,90.0281787 L13.9971635,91.1560935 C14.9855192,91.3299976 15.6454615,92.2707905 15.4712596,93.2574568 C15.31575,94.1376036 14.5491058,94.7570237 13.6838077,94.7570237" id="Fill-13" fill="#FFFFFF"></path>
                    <path d="M27.5563558,97.1989385 C27.4514712,97.1989385 27.3452885,97.1901266 27.2383269,97.1712071 L19.1307981,95.7439491 C18.1424423,95.570045 17.4825,94.6289929 17.6567019,93.6423266 C17.8311635,92.6556604 18.7733077,91.9968462 19.7621827,92.1707503 L27.8697115,93.5980083 C28.8580673,93.7719124 29.5180096,94.7129645 29.3438077,95.6996308 C29.1882981,96.5797775 28.4216538,97.1989385 27.5563558,97.1989385" id="Fill-14" fill="#FFFFFF"></path>
                    <path d="M1.89025962,130.03909 C1.02496154,130.03909 0.258317308,129.419929 0.102807692,128.539782 C-0.0713942308,127.552857 0.588548077,126.612064 1.57690385,126.437901 L3.13641346,126.163438 C4.12502885,125.989015 5.06743269,126.648089 5.24163462,127.634755 C5.41609615,128.62168 4.75615385,129.562473 3.76779808,129.736637 L2.20802885,130.011099 C2.10132692,130.030019 1.99514423,130.03909 1.89025962,130.03909" id="Fill-15" fill="#FFFFFF"></path>
                    <path d="M9.17610577,128.756709 C8.31080769,128.756709 7.54390385,128.137548 7.38839423,127.257142 C7.21419231,126.270476 7.87413462,125.329424 8.86249038,125.15552 L12.7009038,124.479859 C13.6900385,124.305696 14.6319231,124.96451 14.8063846,125.951176 C14.9805865,126.938102 14.3206442,127.879154 13.3322885,128.053058 L9.493875,128.728718 C9.38717308,128.747379 9.28073077,128.756709 9.17610577,128.756709" id="Fill-16" fill="#FFFFFF"></path>
                    <path d="M18.5142115,127.112783 C17.6489135,127.112783 16.8820096,126.493363 16.7267596,125.613476 C16.5522981,124.62655 17.2125,123.685498 18.2008558,123.511594 L27.2559808,121.917948 C28.2448558,121.744044 29.187,122.402858 29.3612019,123.389524 C29.5354038,124.376191 28.8754615,125.317243 27.8868462,125.491147 L18.8319808,127.084793 C18.7250192,127.103712 18.6188365,127.112783 18.5142115,127.112783" id="Fill-17" fill="#FFFFFF"></path>
                    <path d="M14.7103269,165.140254 C14.0823173,165.140254 13.4714423,164.814994 13.1349808,164.232895 C12.6331442,163.365447 12.9309231,162.255675 13.8001154,161.754696 L14.5363846,161.330173 C15.4055769,160.829972 16.51725,161.126464 17.0188269,161.99443 C17.5206635,162.861877 17.2228846,163.97165 16.3536923,164.472628 L15.6174231,164.897151 C15.3313269,165.061985 15.01875,165.140254 14.7103269,165.140254" id="Fill-18" fill="#FFFFFF"></path>
                    <path d="M20.6017788,161.744588 C19.9737692,161.744588 19.3628942,161.419328 19.0264327,160.837228 C18.5245962,159.969263 18.822375,158.860008 19.6915673,158.35877 L23.6883462,156.055512 C24.5577981,155.555311 25.6692115,155.851804 26.1707885,156.71951 C26.672625,157.587476 26.3748462,158.69673 25.5056538,159.197968 L21.508875,161.501226 C21.2227788,161.666059 20.9102019,161.744588 20.6017788,161.744588" id="Fill-19" fill="#FFFFFF"></path>
                    <path d="M30.3435865,156.129895 C29.7155769,156.129895 29.1047019,155.804634 28.7682404,155.222535 C28.2661442,154.354569 28.5639231,153.245315 29.433375,152.744077 L36.3817212,148.739357 C37.2511731,148.239156 38.3625865,148.535649 38.8641635,149.403614 C39.366,150.271321 39.0682212,151.380834 38.1990288,151.881813 L31.2506827,155.886533 C30.9643269,156.051366 30.65175,156.129895 30.3435865,156.129895" id="Fill-20" fill="#FFFFFF"></path>
                    <path d="M38.7769327,193.748393 C38.3644038,193.748393 37.9500577,193.609218 37.6094423,193.32387 C36.8407212,192.679828 36.7405096,191.535586 37.3856538,190.76792 L38.2789904,189.705575 C38.9241346,188.938168 40.0705962,188.838128 40.8393173,189.48191 C41.6080385,190.126211 41.70825,191.270453 41.0628462,192.03812 L40.1697692,193.100464 C39.8104615,193.528097 39.2953846,193.748393 38.7769327,193.748393" id="Fill-21" fill="#FFFFFF"></path>
                    <path d="M43.6483558,187.952798 C43.2360865,187.952798 42.8214808,187.813622 42.481125,187.528275 C41.7121442,186.884233 41.6119327,185.739991 42.2570769,184.972583 L44.90775,181.818983 C45.5528942,181.051058 46.6993558,180.951018 47.4680769,181.595318 C48.2367981,182.23936 48.3370096,183.383602 47.692125,184.151009 L45.0414519,187.304609 C44.6818846,187.732243 44.1668077,187.952798 43.6483558,187.952798" id="Fill-22" fill="#FFFFFF"></path>
                    <path d="M50.8002404,179.444194 C50.3879712,179.444194 49.973625,179.305019 49.6330096,179.019671 C48.8642885,178.37563 48.7640769,177.231387 49.4089615,176.46398 L54.1464231,170.827775 C54.7915673,170.060109 55.9377692,169.959809 56.70675,170.603851 C57.4754712,171.248151 57.5756827,172.392394 56.9307981,173.159801 L52.1933365,178.796006 C51.8340288,179.223639 51.3189519,179.444194 50.8002404,179.444194" id="Fill-23" fill="#FFFFFF"></path>
                    <path d="M71.1971827,212.414191 C70.7194904,212.414191 70.2495865,212.219812 69.9120865,211.882889 C69.5745865,211.545707 69.379875,211.076865 69.379875,210.599989 C69.379875,210.120263 69.5745865,209.653754 69.9120865,209.316831 C70.2495865,208.980167 70.7194904,208.785788 71.1971827,208.785788 C71.674875,208.785788 72.1421827,208.980167 72.4822788,209.316831 C72.8197788,209.653754 73.0144904,210.120263 73.0144904,210.599989 C73.0144904,211.076865 72.8197788,211.545707 72.4822788,211.882889 C72.1421827,212.219812 71.674875,212.414191 71.1971827,212.414191" id="Fill-24" fill="#FFFFFF"></path>
                    <path d="M73.8592788,205.111253 C73.652625,205.111253 73.4431154,205.075747 73.2377596,205.001364 C72.2945769,204.65874 71.8083173,203.617388 72.1515288,202.675818 L73.4584327,199.091993 C73.8013846,198.150682 74.8445192,197.665772 75.7874423,198.007878 C76.730625,198.350503 77.2168846,199.391854 76.8736731,200.333166 L75.5670288,203.91725 C75.2985865,204.653556 74.6012596,205.111253 73.8592788,205.111253" id="Fill-25" fill="#FFFFFF"></path>
                    <path d="M77.4474231,195.269471 C77.2407692,195.269471 77.0312596,195.234224 76.8259038,195.159582 C75.8829808,194.816957 75.3964615,193.775865 75.7399327,192.834295 L78.4074808,185.51788 C78.7506923,184.576569 79.7938269,184.091918 80.7364904,184.433766 C81.6796731,184.776391 82.1659327,185.817742 81.8227212,186.759053 L79.1551731,194.075467 C78.8867308,194.812033 78.1896635,195.269471 77.4474231,195.269471" id="Fill-26" fill="#FFFFFF"></path>
                    <path d="M108.054779,218.883373 C107.577087,218.883373 107.109779,218.691586 106.769683,218.352071 C106.432183,218.015148 106.237471,217.548639 106.237471,217.069172 C106.237471,216.592296 106.432183,216.125787 106.769683,215.786272 C107.109779,215.449349 107.577087,215.25497 108.054779,215.25497 C108.532471,215.25497 109.002375,215.449349 109.339875,215.786272 C109.679971,216.125787 109.872087,216.592296 109.872087,217.069172 C109.872087,217.548639 109.679971,218.015148 109.339875,218.352071 C109.002375,218.691586 108.532471,218.883373 108.054779,218.883373" id="Fill-27" fill="#FFFFFF"></path>
                    <path d="M108.055298,213.775101 C107.058115,213.775101 106.246038,212.971669 106.23825,211.974376 L106.188144,205.495086 C106.180356,204.493388 106.98776,203.674924 107.991433,203.667149 C107.996106,203.667149 108.001038,203.667149 108.005712,203.667149 C109.002894,203.667149 109.814971,204.470063 109.82276,205.467355 L109.872606,211.946645 C109.880654,212.948343 109.07299,213.767325 108.069577,213.775101 C108.064904,213.775101 108.059971,213.775101 108.055298,213.775101" id="Fill-28" fill="#FFFFFF"></path>
                    <path d="M108.005712,201.52691 C108.002077,201.52691 107.998702,201.52691 107.994808,201.52691 C106.991394,201.520949 106.182433,200.70404 106.188144,199.702342 L106.23825,191.028905 C106.243962,190.030317 107.056558,189.225071 108.055298,189.225071 C108.058933,189.225071 108.062308,189.225071 108.065942,189.225071 C109.069875,189.231032 109.878577,190.047941 109.872606,191.049639 L109.82276,199.723076 C109.817048,200.721405 109.004452,201.52691 108.005712,201.52691" id="Fill-29" fill="#FFFFFF"></path>
                    <path d="M144.907183,212.380498 C144.42949,212.380498 143.962183,212.18612 143.622087,211.848937 C143.284587,211.509422 143.089875,211.043173 143.089875,210.566297 C143.089875,210.08657 143.284587,209.620062 143.622087,209.283398 C143.962183,208.943624 144.42949,208.752096 144.907183,208.752096 C145.387471,208.752096 145.854779,208.943624 146.192279,209.283398 C146.532375,209.620062 146.72449,210.08657 146.72449,210.566297 C146.72449,211.043173 146.532375,211.509422 146.192279,211.848937 C145.854779,212.18612 145.384875,212.380498 144.907183,212.380498" id="Fill-30" fill="#FFFFFF"></path>
                    <path d="M142.496654,205.765402 C141.754413,205.765402 141.057606,205.307964 140.788644,204.571399 L139.196942,200.205135 C138.853471,199.263564 139.339731,198.222472 140.282913,197.879847 C141.226875,197.537741 142.268971,198.022651 142.612442,198.963962 L144.204404,203.330226 C144.547615,204.271796 144.061356,205.312889 143.118173,205.655773 C142.912817,205.730155 142.703048,205.765402 142.496654,205.765402" id="Fill-31" fill="#FFFFFF"></path>
                    <path d="M139.156183,196.603427 C138.413683,196.603427 137.716875,196.145989 137.448173,195.409164 L134.282163,186.725102 C133.938952,185.783272 134.425212,184.74218 135.368394,184.399555 C136.311577,184.057449 137.354452,184.542618 137.697663,185.483929 L140.863673,194.167992 C141.207144,195.109821 140.720885,196.150914 139.777442,196.493538 C139.572606,196.567921 139.362317,196.603427 139.156183,196.603427" id="Fill-32" fill="#FFFFFF"></path>
                    <path d="M177.310817,193.684118 C176.792106,193.684118 176.277288,193.464082 175.917981,193.036189 L175.075788,192.034491 C174.430385,191.267084 174.530596,190.122841 175.299317,189.4788 C176.068558,188.833981 177.21476,188.93428 177.859385,189.701947 L178.701837,190.703645 C179.346981,191.471052 179.246769,192.615295 178.478048,193.259336 C178.137692,193.544943 177.723087,193.684118 177.310817,193.684118" id="Fill-33" fill="#FFFFFF"></path>
                    <path d="M173.675423,189.412711 C173.153596,189.412711 172.635923,189.189564 172.276356,188.757525 L167.901317,183.498934 C167.260067,182.728417 167.36599,181.584433 168.138087,180.944279 C168.910702,180.303866 170.055865,180.409608 170.697115,181.180644 L175.072413,186.439236 C175.713663,187.210012 175.60774,188.353995 174.835644,188.99389 C174.496067,189.27535 174.084577,189.412711 173.675423,189.412711" id="Fill-34" fill="#FFFFFF"></path>
                    <path d="M166.572865,180.909291 C166.054154,180.909291 165.539077,180.688995 165.179769,180.261103 L159.156692,173.095527 C158.511548,172.32812 158.612019,171.183877 159.381,170.539576 C160.149462,169.895017 161.296183,169.995834 161.941067,170.763501 L167.963885,177.929077 C168.609288,178.696484 168.508817,179.840727 167.739837,180.484768 C167.399481,180.770116 166.984875,180.909291 166.572865,180.909291" id="Fill-35" fill="#FFFFFF"></path>
                    <path d="M201.350423,165.053691 C201.042,165.053691 200.729683,164.975421 200.443587,164.810329 L199.028683,163.994716 C198.15949,163.493996 197.861712,162.384483 198.363808,161.516776 C198.865385,160.648811 199.977058,160.3518 200.84599,160.852779 L202.260894,161.668392 C203.130087,162.169111 203.427865,163.278884 202.925769,164.146331 C202.589308,164.728431 201.978433,165.053691 201.350423,165.053691" id="Fill-36" fill="#FFFFFF"></path>
                    <path d="M195.611885,161.746402 C195.303721,161.746402 194.991404,161.667873 194.705048,161.50304 L189.763269,158.654744 C188.894077,158.153507 188.596298,157.043993 189.097875,156.176286 C189.599971,155.30858 190.711385,155.011828 191.580577,155.512289 L196.522356,158.360585 C197.391548,158.861822 197.689327,159.971336 197.18775,160.839043 C196.851029,161.421142 196.239894,161.746402 195.611885,161.746402" id="Fill-37" fill="#FFFFFF"></path>
                    <path d="M186.38126,156.425869 C186.072837,156.425869 185.760519,156.347599 185.474163,156.182766 L177.861721,151.79525 C176.992788,151.294271 176.69475,150.184757 177.196587,149.317051 C177.698423,148.449604 178.810096,148.152593 179.679029,148.652794 L187.291471,153.04031 C188.160663,153.541289 188.458702,154.650802 187.956865,155.518509 C187.620144,156.100349 187.009269,156.425869 186.38126,156.425869" id="Fill-38" fill="#FFFFFF"></path>
                    <path d="M214.138558,129.940605 C214.032115,129.940605 213.928269,129.931534 213.819231,129.912873 L213.177981,129.799875 C212.188846,129.62623 211.529942,128.685178 211.704144,127.69877 C211.877308,126.711586 212.822308,126.05329 213.808846,126.226676 L214.450096,126.339415 C215.439231,126.51306 216.098654,127.454112 215.924712,128.440779 C215.768942,129.321185 215.003077,129.940605 214.138558,129.940605" id="Fill-39" fill="#FFFFFF"></path>
                    <path d="M208.037856,128.866857 C207.932971,128.866857 207.826788,128.857786 207.720087,128.839125 L202.380577,127.89911 C201.392221,127.725206 200.732019,126.784154 200.906481,125.797488 C201.080683,124.810821 202.023346,124.152007 203.011702,124.325911 L208.351471,125.265927 C209.339567,125.439831 209.999769,126.380883 209.825308,127.367549 C209.670058,128.247696 208.903154,128.866857 208.037856,128.866857" id="Fill-40" fill="#FFFFFF"></path>
                    <path d="M198.248279,127.143884 C198.143394,127.143884 198.037212,127.134813 197.93051,127.116153 L188.141192,125.392662 C187.152837,125.218757 186.492635,124.277705 186.667096,123.291039 C186.841298,122.304373 187.783183,121.645559 188.772577,121.819463 L198.561894,123.542695 C199.54999,123.716599 200.210192,124.657651 200.035731,125.644576 C199.880481,126.524464 199.113577,127.143884 198.248279,127.143884" id="Fill-41" fill="#FFFFFF"></path>
                    <path d="M214.117788,92.5810189 C213.640096,92.5810189 213.170192,92.3866402 212.832692,92.049458 C212.495192,91.7102024 212.300481,91.2434343 212.300481,90.7668178 C212.300481,90.289942 212.495192,89.8208414 212.832692,89.4836592 C213.172788,89.1441444 213.640096,88.9526166 214.117788,88.9526166 C214.595481,88.9526166 215.065385,89.1441444 215.402885,89.4836592 C215.740385,89.8208414 215.935096,90.289942 215.935096,90.7668178 C215.935096,91.2434343 215.740385,91.7102024 215.402885,92.049458 C215.065385,92.3866402 214.595481,92.5810189 214.117788,92.5810189" id="Fill-42" fill="#FFFFFF"></path>
                    <path d="M202.892798,94.5561657 C202.02724,94.5561657 201.260596,93.9370047 201.105087,93.056858 C200.930885,92.0699325 201.591087,91.1291396 202.579183,90.9549763 L207.806279,90.0349172 C208.795154,89.8599763 209.737298,90.5198272 209.9115,91.5064935 C210.085962,92.4931598 209.42576,93.4342118 208.437663,93.608116 L203.210567,94.5281751 C203.103865,94.5470947 202.997683,94.5561657 202.892798,94.5561657" id="Fill-43" fill="#FFFFFF"></path>
                    <path d="M188.437413,97.1007124 C187.571856,97.1007124 186.804952,96.4812923 186.649702,95.6011456 C186.47524,94.6144793 187.135442,93.6734272 188.123798,93.4995231 L198.399115,91.6907645 C199.38851,91.5155645 200.330135,92.1759337 200.504337,93.1626 C200.678798,94.1492663 200.018596,95.0900592 199.03024,95.2642225 L188.754923,97.0727219 C188.648221,97.0916414 188.542038,97.1007124 188.437413,97.1007124" id="Fill-44" fill="#FFFFFF"></path>
                    <path d="M200.275615,58.0720615 C199.647606,58.0720615 199.036731,57.746542 198.700269,57.1647018 C198.198173,56.2969953 198.495952,55.1874817 199.365144,54.686503 L200.393481,54.0937775 C201.263192,53.5927988 202.374346,53.8900686 202.875923,54.757516 C203.37776,55.6252225 203.08024,56.7349953 202.210788,57.235974 L201.182452,57.8286994 C200.896356,57.9935325 200.584038,58.0720615 200.275615,58.0720615" id="Fill-45" fill="#FFFFFF"></path>
                    <path d="M191.290846,63.2505692 C190.662577,63.2505692 190.051702,62.9253089 189.714981,62.3432095 C189.213404,61.4757621 189.511183,60.3659893 190.380375,59.8650107 L195.434308,56.9519219 C196.30376,56.450684 197.415173,56.748213 197.91675,57.6159195 C198.418587,58.483626 198.120548,59.5931396 197.251615,60.0941183 L192.197683,63.0072071 C191.911327,63.1722994 191.59901,63.2505692 191.290846,63.2505692" id="Fill-46" fill="#FFFFFF"></path>
                    <path d="M178.722346,70.4944154 C178.094077,70.4944154 177.483202,70.169155 177.146481,69.5870556 C176.644904,68.7193491 176.942683,67.6098355 177.811875,67.1088568 L186.524567,62.0871479 C187.394019,61.5859101 188.505173,61.8836982 189.007269,62.7511456 C189.508846,63.6191112 189.211067,64.7286249 188.341875,65.2293444 L179.629183,70.2510533 C179.342827,70.4161456 179.03051,70.4944154 178.722346,70.4944154" id="Fill-47" fill="#FFFFFF"></path>
                    <path d="M177.231894,28.8714568 C176.754462,28.8714568 176.286894,28.6770781 175.946798,28.3398959 C175.609298,28.0003811 175.414587,27.5341314 175.414587,27.0572556 C175.414587,26.5777882 175.609298,26.1110201 175.946798,25.7743562 C176.286894,25.4345822 176.754462,25.2430544 177.231894,25.2430544 C177.712183,25.2430544 178.17949,25.4345822 178.51699,25.7743562 C178.857087,26.1110201 179.049202,26.5801207 179.049202,27.0572556 C179.049202,27.5341314 178.857087,28.0003811 178.51699,28.3398959 C178.17949,28.6770781 177.712183,28.8714568 177.231894,28.8714568" id="Fill-48" fill="#FFFFFF"></path>
                    <path d="M169.685654,37.8483834 C169.271827,37.8483834 168.855923,37.7081716 168.514788,37.4210095 C167.747625,36.7746355 167.650529,35.6301337 168.29775,34.8642817 L170.987625,31.6819136 C171.634327,30.9160615 172.781567,30.8193905 173.548212,31.4655053 C174.315375,32.1116201 174.412471,33.2561219 173.76525,34.021974 L171.075635,37.204342 C170.716327,37.6296426 170.202548,37.8483834 169.685654,37.8483834" id="Fill-49" fill="#FFFFFF"></path>
                    <path d="M163.644404,45.0359893 C163.232394,45.0359893 162.818048,44.8968142 162.477433,44.6117254 C161.708452,43.967684 161.60824,42.8231822 162.253385,42.0557751 L163.963731,40.0207598 C164.608615,39.2530935 165.754817,39.1530533 166.523798,39.7968355 C167.292779,40.4408769 167.39325,41.5851195 166.748106,42.3527858 L165.03776,44.3878012 C164.678452,44.8154343 164.163375,45.0359893 163.644404,45.0359893" id="Fill-50" fill="#FFFFFF"></path>
                    <path d="M160.471385,48.8110828 C160.059115,48.8110828 159.644769,48.6719077 159.304154,48.3868189 C158.535433,47.7427775 158.434962,46.5982757 159.080106,45.8308686 L162.253385,42.055516 C162.898529,41.288368 164.044471,41.1878095 164.813712,41.8321101 C165.582433,42.4758923 165.682904,43.6203941 165.03776,44.3878012 L161.864481,48.1631538 C161.504913,48.590787 160.990096,48.8110828 160.471385,48.8110828" id="Fill-51" fill="#FFFFFF"></path>
                    <path d="M144.813721,10.2059183 C144.336029,10.2059183 143.866125,10.0115396 143.528625,9.6743574 C143.191125,9.33769349 142.996413,8.8685929 142.996413,8.39171716 C142.996413,7.91458225 143.191125,7.44548166 143.528625,7.10881775 C143.866125,6.77189467 144.333433,6.57751598 144.813721,6.57751598 C145.291413,6.57751598 145.761317,6.77189467 146.098817,7.10881775 C146.436317,7.44548166 146.631029,7.91458225 146.631029,8.39171716 C146.631029,8.8685929 146.436317,9.3348426 146.098817,9.6743574 C145.761317,10.0115396 145.291413,10.2059183 144.813721,10.2059183" id="Fill-52" fill="#FFFFFF"></path>
                    <path d="M140.890154,20.9685373 C140.685837,20.9685373 140.478144,20.9338083 140.274865,20.8607219 C139.330385,20.5214663 138.840231,19.4821882 139.180067,18.5395811 L140.847317,13.9138864 C141.187413,12.9710201 142.228731,12.4819633 143.172692,12.8212189 C144.117173,13.1604746 144.607067,14.1997527 144.26749,15.1426189 L142.60024,19.7680544 C142.333615,20.5077302 141.634731,20.9685373 140.890154,20.9685373" id="Fill-53" fill="#FFFFFF"></path>
                    <path d="M136.834183,32.0934781 C136.629087,32.0934781 136.420615,32.0584899 136.216817,31.9848852 C135.272596,31.6445929 134.78374,30.6047964 135.124875,29.6624485 L137.48374,23.1440237 C137.824875,22.2014166 138.867231,21.714174 139.810413,22.0542071 C140.754635,22.3944994 141.243231,23.4342959 140.902356,24.3766438 L138.54349,30.8950686 C138.276087,31.6337077 137.577981,32.0934781 136.834183,32.0934781" id="Fill-54" fill="#FFFFFF"></path>
                    <path d="M135.895673,34.6667929 C135.689279,34.6667929 135.47951,34.6312864 135.274154,34.556645 C134.330971,34.2140201 133.844712,33.1729278 134.188183,32.2313574 L135.126433,29.6580426 C135.469644,28.7167314 136.51174,28.2307846 137.455702,28.5739278 C138.398885,28.9168118 138.885144,29.9579041 138.541933,30.8992154 L137.603683,33.4725302 C137.334981,34.2090959 136.637913,34.6667929 135.895673,34.6667929" id="Fill-55" fill="#FFFFFF"></path>
                    <path d="M107.956125,3.73440355 C107.478433,3.73440355 107.008529,3.5423574 106.671029,3.20310178 C106.330933,2.86591953 106.138817,2.39966982 106.138817,1.92020237 C106.138817,1.44332663 106.330933,0.97655858 106.671029,0.637043787 C107.008529,0.300379882 107.478433,0.106001183 107.956125,0.106001183 C108.433817,0.106001183 108.901125,0.300379882 109.241221,0.637043787 C109.578981,0.97655858 109.773692,1.44332663 109.773692,1.92020237 C109.773692,2.39966982 109.578981,2.86591953 109.241221,3.20310178 C108.901125,3.5423574 108.433817,3.73440355 107.956125,3.73440355" id="Fill-56" fill="#FFFFFF"></path>
                    <path d="M107.956125,13.4351964 C107.944702,13.4351964 107.933019,13.4349373 107.921596,13.4349373 C106.918183,13.4160178 106.119606,12.5890012 106.138298,11.587303 L106.205798,7.95890059 C106.22449,6.96860592 107.034231,6.17839172 108.022327,6.17839172 C108.03375,6.17839172 108.045173,6.17839172 108.056596,6.17865089 C109.06001,6.19731124 109.858587,7.02432781 109.839894,8.02628521 L109.772394,11.6546876 C109.753962,12.6449822 108.943962,13.4351964 107.956125,13.4351964" id="Fill-57" fill="#FFFFFF"></path>
                    <path d="M107.955606,29.7655988 C107.952231,29.7655988 107.948856,29.7655988 107.945481,29.7655988 C106.941808,29.759897 106.132587,28.9435065 106.138038,27.9415491 L106.188144,18.8031586 C106.193596,17.800942 107.008269,16.9998426 108.015317,16.9988059 C109.01899,17.0042485 109.828212,17.8208982 109.82276,18.8228556 L109.772654,27.9612462 C109.767202,28.9598343 108.954606,29.7655988 107.955606,29.7655988" id="Fill-58" fill="#FFFFFF"></path>
                    <polyline id="Fill-59" fill="#4B70A9" points="100.866548 7.76918698 102.219144 9.11973018 100.866548 7.76918698"></polyline>
                    <path d="M102.219144,9.6378142 C102.086481,9.6378142 101.953298,9.58727574 101.852048,9.48593964 L100.499452,8.13565562 C100.296692,7.9332426 100.296692,7.60513136 100.499452,7.40271834 C100.701952,7.20030533 101.031144,7.20030533 101.233644,7.40271834 L102.58624,8.75300237 C102.78926,8.95541538 102.78926,9.2837858 102.58624,9.48593964 C102.48499,9.58727574 102.352067,9.6378142 102.219144,9.6378142" id="Fill-60" fill="#3AC5FC"></path>
                    <polyline id="Fill-61" fill="#4B70A9" points="99.7034712 10.6480651 101.616317 10.6480651 99.7034712 10.6480651"></polyline>
                    <polyline id="Fill-63" fill="#4B70A9" points="100.920029 13.5046544 102.272885 12.1543704 100.920029 13.5046544"></polyline>
                    <polyline id="Fill-65" fill="#4B70A9" points="103.803837 14.6660024 103.803837 12.7561669 103.803837 14.6660024"></polyline>
                    <path d="M103.803837,15.1840864 C103.516962,15.1840864 103.284606,14.9521278 103.284606,14.6657432 L103.284606,12.7561669 C103.284606,12.4697822 103.516962,12.2378237 103.803837,12.2378237 C104.090452,12.2378237 104.323067,12.4697822 104.323067,12.7561669 L104.323067,14.6657432 C104.323067,14.9521278 104.090452,15.1840864 103.803837,15.1840864" id="Fill-66" fill="#3AC5FC"></path>
                    <polyline id="Fill-67" fill="#4B70A9" points="106.665317 13.4512651 105.312721 12.1007219 106.665317 13.4512651"></polyline>
                    <polyline id="Fill-69" fill="#4B70A9" points="107.828654 10.572387 105.915548 10.572387 107.828654 10.572387"></polyline>
                    <polyline id="Fill-71" fill="#4B70A9" points="106.611837 7.71579763 105.258981 9.06608166 106.611837 7.71579763"></polyline>
                    <polyline id="Fill-73" fill="#4B70A9" points="103.728029 6.55470888 103.728029 8.46428521 103.728029 6.55470888"></polyline>
                    <path d="M103.728029,8.98288757 C103.441413,8.98288757 103.208798,8.75066982 103.208798,8.46454438 L103.208798,6.5544497 C103.208798,6.26832426 103.441413,6.03610651 103.728029,6.03610651 C104.014904,6.03610651 104.24726,6.26832426 104.24726,6.5544497 L104.24726,8.46454438 C104.24726,8.75066982 104.014904,8.98288757 103.728029,8.98288757" id="Fill-74" fill="#3AC5FC"></path>
                    <polyline id="Fill-75" fill="#4B70A9" points="168.468577 191.78128 170.361433 193.670641 168.468577 191.78128"></polyline>
                    <path d="M170.361173,194.28747 C170.203327,194.28747 170.045221,194.227083 169.9245,194.106568 L168.031904,192.217207 C167.790462,191.976437 167.790462,191.586124 168.031904,191.345095 C168.273087,191.104324 168.664067,191.104324 168.90525,191.345095 L170.798106,193.234715 C171.039288,193.475485 171.039288,193.865798 170.798106,194.106568 C170.677385,194.227083 170.519279,194.28747 170.361173,194.28747" id="Fill-76" fill="#3AC5FC"></path>
                    <polyline id="Fill-77" fill="#4B70A9" points="166.841048 195.809325 169.517942 195.809325 166.841048 195.809325"></polyline>
                    <path d="M169.517942,196.426154 L166.841048,196.426154 C166.499913,196.426154 166.223163,196.149877 166.223163,195.809325 C166.223163,195.468774 166.499913,195.192756 166.841048,195.192756 L169.517942,195.192756 C169.859077,195.192756 170.135567,195.468774 170.135567,195.809325 C170.135567,196.149877 169.859077,196.426154 169.517942,196.426154" id="Fill-78" fill="#3AC5FC"></path>
                    <polyline id="Fill-79" fill="#4B70A9" points="168.543606 199.806529 170.436202 197.916909 168.543606 199.806529"></polyline>
                    <path d="M168.543346,200.423098 C168.38524,200.423098 168.227394,200.362711 168.106673,200.242456 C167.865231,200.001426 167.865231,199.610854 168.106673,199.370343 L169.999529,197.480982 C170.240971,197.239953 170.631952,197.239953 170.873135,197.480982 C171.114317,197.721753 171.114317,198.112324 170.873135,198.352836 L168.980019,200.242456 C168.859558,200.362711 168.701452,200.423098 168.543346,200.423098" id="Fill-80" fill="#3AC5FC"></path>
                    <polyline id="Fill-81" fill="#4B70A9" points="172.578548 201.431017 172.578548 198.758957 172.578548 201.431017"></polyline>
                    <path d="M172.578548,202.047845 C172.237413,202.047845 171.960663,201.771568 171.960663,201.431017 L171.960663,198.758698 C171.960663,198.418147 172.237413,198.142129 172.578548,198.142129 C172.919683,198.142129 173.196173,198.418147 173.196173,198.758698 L173.196173,201.431017 C173.196173,201.771568 172.919683,202.047845 172.578548,202.047845" id="Fill-82" fill="#3AC5FC"></path>
                    <polyline id="Fill-83" fill="#4B70A9" points="176.582596 199.731628 174.68974 197.842008 176.582596 199.731628"></polyline>
                    <path d="M176.582596,200.348457 C176.42449,200.348457 176.266385,200.28807 176.145923,200.167555 L174.252808,198.278194 C174.011625,198.037683 174.011625,197.647111 174.252808,197.406341 C174.49399,197.165311 174.884971,197.165311 175.126413,197.406341 L177.019269,199.295702 C177.260712,199.536213 177.260712,199.926785 177.019269,200.167555 C176.898548,200.28807 176.740702,200.348457 176.582596,200.348457" id="Fill-84" fill="#3AC5FC"></path>
                    <polyline id="Fill-85" fill="#4B70A9" points="178.209865 195.703583 175.533231 195.703583 178.209865 195.703583"></polyline>
                    <path d="M178.209865,196.320153 L175.533231,196.320153 C175.192096,196.320153 174.915606,196.043876 174.915606,195.703583 C174.915606,195.362773 175.192096,195.086755 175.533231,195.086755 L178.209865,195.086755 C178.551,195.086755 178.82749,195.362773 178.82749,195.703583 C178.82749,196.043876 178.551,196.320153 178.209865,196.320153" id="Fill-86" fill="#3AC5FC"></path>
                    <polyline id="Fill-87" fill="#4B70A9" points="176.507567 191.70638 174.614712 193.596 176.507567 191.70638"></polyline>
                    <polyline id="Fill-89" fill="#4B70A9" points="172.472625 190.081633 172.472625 192.753951 172.472625 190.081633"></polyline>
                    <path d="M172.472625,193.370521 C172.13149,193.370521 171.855,193.094244 171.855,192.753692 L171.855,190.081633 C171.855,189.741082 172.13149,189.465064 172.472625,189.465064 C172.81376,189.465064 173.09025,189.741082 173.09025,190.081633 L173.09025,192.753692 C173.09025,193.094244 172.81376,193.370521 172.472625,193.370521" id="Fill-90" fill="#3AC5FC"></path>
                    <polyline id="Fill-91" fill="#4B70A9" points="79.3156154 203.696954 80.9065385 205.285157 79.3156154 203.696954"></polyline>
                    <path d="M80.9065385,205.803501 C80.7736154,205.803501 80.6406923,205.752703 80.5394423,205.651626 L78.9485192,204.063422 C78.7457596,203.86075 78.7457596,203.532898 78.9485192,203.330485 C79.1512788,203.127813 79.4799519,203.127813 79.6827115,203.330485 L81.2736346,204.918689 C81.4763942,205.121102 81.4763942,205.448954 81.2736346,205.651626 C81.172125,205.752703 81.0394615,205.803501 80.9065385,205.803501" id="Fill-92" fill="#3AC5FC"></path>
                    <polyline id="Fill-93" fill="#4B70A9" points="77.9477019 207.082772 80.1975288 207.082772 77.9477019 207.082772"></polyline>
                    <path d="M80.1975288,207.601115 L77.9474423,207.601115 C77.6608269,207.601115 77.4282115,207.369156 77.4282115,207.082772 C77.4282115,206.796646 77.6608269,206.564428 77.9474423,206.564428 L80.1975288,206.564428 C80.4844038,206.564428 80.7167596,206.796646 80.7167596,207.082772 C80.7167596,207.369156 80.4844038,207.601115 80.1975288,207.601115" id="Fill-94" fill="#3AC5FC"></path>
                    <polyline id="Fill-95" fill="#4B70A9" points="79.3784423 210.442413 80.969625 208.854209 79.3784423 210.442413"></polyline>
                    <path d="M79.3784423,210.960756 C79.2455192,210.960756 79.1128558,210.910218 79.0113462,210.808882 C78.8085865,210.606469 78.8085865,210.278098 79.0113462,210.075944 L80.6025288,208.487741 C80.8052885,208.285328 81.1339615,208.285328 81.3367212,208.487741 C81.5394808,208.690154 81.5394808,209.018524 81.3367212,209.220678 L79.7455385,210.808882 C79.6442885,210.910218 79.5113654,210.960756 79.3784423,210.960756" id="Fill-96" fill="#3AC5FC"></path>
                    <polyline id="Fill-97" fill="#4B70A9" points="82.7703173 211.808247 82.7703173 209.562007 82.7703173 211.808247"></polyline>
                    <path d="M82.7703173,212.326591 C82.4834423,212.326591 82.2510865,212.094373 82.2510865,211.808247 L82.2510865,209.562007 C82.2510865,209.275622 82.4834423,209.043664 82.7703173,209.043664 C83.0569327,209.043664 83.2895481,209.275622 83.2895481,209.562007 L83.2895481,211.808247 C83.2895481,212.094373 83.0569327,212.326591 82.7703173,212.326591" id="Fill-98" fill="#3AC5FC"></path>
                    <polyline id="Fill-99" fill="#4B70A9" points="86.1357115 210.379693 84.5447885 208.791231 86.1357115 210.379693"></polyline>
                    <path d="M86.1357115,210.898037 C86.0030481,210.898037 85.870125,210.847498 85.7686154,210.746162 L84.1774327,209.157959 C83.9746731,208.955805 83.9746731,208.627434 84.1774327,208.425021 C84.3804519,208.222608 84.7088654,208.222608 84.9118846,208.425021 L86.5028077,210.013225 C86.7058269,210.215379 86.7058269,210.543749 86.5028077,210.746162 C86.4015577,210.847498 86.2686346,210.898037 86.1357115,210.898037" id="Fill-100" fill="#3AC5FC"></path>
                    <polyline id="Fill-101" fill="#4B70A9" points="87.503625 206.993876 85.2537981 206.993876 87.503625 206.993876"></polyline>
                    <path d="M87.503625,207.51196 L85.2537981,207.51196 C84.9669231,207.51196 84.7345673,207.280001 84.7345673,206.993617 C84.7345673,206.707491 84.9669231,206.475273 85.2537981,206.475273 L87.503625,206.475273 C87.7902404,206.475273 88.0228558,206.707491 88.0228558,206.993617 C88.0228558,207.280001 87.7902404,207.51196 87.503625,207.51196" id="Fill-102" fill="#3AC5FC"></path>
                    <polyline id="Fill-103" fill="#4B70A9" points="86.0728846 203.633975 84.4817019 205.222179 86.0728846 203.633975"></polyline>
                    <path d="M84.4817019,205.740522 C84.3490385,205.740522 84.2161154,205.689983 84.1146058,205.588647 C83.9118462,205.386493 83.9118462,205.058382 84.1146058,204.85571 L85.7055288,203.267247 C85.9082885,203.064834 86.2369615,203.064834 86.4397212,203.267247 C86.6427404,203.46966 86.6427404,203.797772 86.4397212,204.000444 L84.8487981,205.588647 C84.7475481,205.689983 84.614625,205.740522 84.4817019,205.740522" id="Fill-104" fill="#3AC5FC"></path>
                    <polyline id="Fill-105" fill="#4B70A9" points="82.6810096 202.2684 82.6810096 204.514381 82.6810096 202.2684"></polyline>
                    <path d="M82.1620385,204.514381 L82.1620385,202.2684 C82.1620385,201.982015 82.3943942,201.750057 82.6812692,201.750057 C82.9678846,201.750057 83.2005,201.982015 83.2005,202.2684 L83.2005,204.514381 C83.2005,204.800507 82.9678846,205.032724 82.6812692,205.032724 C82.3943942,205.032724 82.1620385,204.800507 82.1620385,204.514381 Z" id="Fill-106" fill="#3AC5FC"></path>
                    <path d="M178.640048,18.3050308 C178.158721,18.3050308 177.76826,18.6945657 177.76826,19.175329 L177.76826,22.9465349 C177.76826,23.4270391 178.158721,23.8168331 178.640048,23.8168331 C179.121635,23.8168331 179.511837,23.4270391 179.511837,22.9465349 L179.511837,19.175329 C179.511837,18.6945657 179.121635,18.3050308 178.640048,18.3050308" id="Fill-107" fill="#3AC5FC"></path>
                    <path d="M184.887692,24.5419953 L181.110029,24.5419953 C180.628702,24.5419953 180.23824,24.9315302 180.23824,25.4122935 C180.23824,25.8927976 180.628702,26.2825917 181.110029,26.2825917 L184.887692,26.2825917 C185.369019,26.2825917 185.759481,25.8927976 185.759481,25.4122935 C185.759481,24.9315302 185.369019,24.5419953 184.887692,24.5419953" id="Fill-109" fill="#3AC5FC"></path>
                    <path d="M26.4439038,86.0022071 C26.159625,85.7186734 25.6990673,85.7186734 25.4147885,86.0022071 L23.1849519,88.228232 C22.9009327,88.5120249 22.9009327,88.9717953 23.1849519,89.2555882 C23.4692308,89.5393811 23.9300481,89.5393811 24.2140673,89.2555882 L26.4439038,87.0295633 C26.7281827,86.7460296 26.7281827,86.286 26.4439038,86.0022071" id="Fill-111" fill="#3AC5FC"></path>
                    <path d="M21.2983269,88.228232 L19.0684904,86.0022071 C18.7844712,85.7184142 18.3236538,85.7184142 18.039375,86.0022071 C17.7553558,86.2857408 17.7553558,86.7457704 18.039375,87.0295633 L20.2692115,89.2555882 C20.5532308,89.5391219 21.0140481,89.5391219 21.2983269,89.2555882 C21.5823462,88.9717953 21.5823462,88.5117657 21.2983269,88.228232" id="Fill-114" fill="#3AC5FC"></path>
                    <path d="M197.282769,142.481918 C196.902952,142.10275 196.286885,142.10275 195.906808,142.481918 L192.925125,145.458504 C192.545048,145.837931 192.545048,146.452946 192.925125,146.832373 C193.305202,147.211541 193.921269,147.211541 194.301346,146.832373 L197.282769,143.855787 C197.662846,143.47636 197.662846,142.861346 197.282769,142.481918" id="Fill-115" fill="#3AC5FC"></path>
                    <path d="M197.282769,152.327329 L194.301346,149.350743 C193.921269,148.971575 193.305202,148.971575 192.925125,149.350743 C192.545048,149.73017 192.545048,150.345185 192.925125,150.724612 L195.906808,153.700938 C196.286885,154.080366 196.902952,154.080366 197.282769,153.700938 C197.662846,153.32177 197.662846,152.706497 197.282769,152.327329" id="Fill-117" fill="#3AC5FC"></path>
                    <path d="M190.402183,145.458245 L187.4205,142.481918 C187.040683,142.102491 186.424356,142.102491 186.044538,142.481918 C185.664462,142.861086 185.664462,143.47636 186.044538,143.855528 L189.025962,146.832114 C189.406038,147.211541 190.022106,147.211541 190.402183,146.832114 C190.78226,146.452686 190.78226,145.837672 190.402183,145.458245" id="Fill-118" fill="#3AC5FC"></path>
                    <path d="M201.633404,61.2492462 C201.633404,61.791174 201.193356,62.230729 200.65024,62.230729 C200.107385,62.230729 199.667337,61.791174 199.667337,61.2492462 C199.667337,60.7073183 200.107385,60.2677633 200.65024,60.2677633 C201.193356,60.2677633 201.633404,60.7073183 201.633404,61.2492462" id="Fill-121" fill="#3AC5FC"></path>
                    <path d="M144.464798,167.488349 C142.192644,176.682721 132.884135,182.297673 123.67376,180.029404 L62.0761154,164.859053 C52.8657404,162.590783 47.2411731,153.298445 49.5135865,144.103814 L71.5458462,54.9477479 C73.818,45.7531172 83.1265096,40.1381645 92.3368846,42.4066935 L153.934529,57.5767846 C163.144904,59.8450544 168.769212,69.1376521 166.497058,78.3320237 L144.464798,167.488349 Z" id="Fill-124" fill="#FFFFFF"></path>
                    <path d="M88.2232788,43.719916 C81.3232212,43.719916 75.0353365,48.4015917 73.3104519,55.3823787 L51.2779327,144.538186 C50.2952885,148.514656 50.9225192,152.635225 53.0443558,156.14078 C55.1659327,159.646076 58.5282115,162.117018 62.5114904,163.097982 L124.109135,178.268073 C128.091894,179.24826 132.219779,178.622879 135.731077,176.504411 C139.242894,174.386201 141.717808,171.029929 142.700452,167.053459 L164.732712,77.8976521 C165.715096,73.9211822 165.087865,69.800613 162.966548,66.2953172 C160.844712,62.7900213 157.482692,60.3190793 153.499413,59.3381148 L91.9015096,44.1680237 C90.6714519,43.8650521 89.4372404,43.719916 88.2232788,43.719916 Z M127.822154,182.350285 C126.295615,182.350285 124.758692,182.164978 123.238385,181.790734 L61.6407404,166.620643 C56.7150577,165.40746 52.5573173,162.352086 49.9333846,158.017182 C47.3094519,153.682278 46.5339808,148.586705 47.7489808,143.669183 L69.7815,54.5131172 C70.9967596,49.5958544 74.0573654,45.4452213 78.3996923,42.825774 C82.7417596,40.2065858 87.8457981,39.4324402 92.772,40.6451041 L154.369904,55.8151953 C159.295846,57.0283775 163.453587,60.0840107 166.07726,64.4189148 C168.700933,68.7538189 169.476663,73.8491325 168.261404,78.7666544 L146.229144,167.922721 C145.013885,172.840243 141.953279,176.990617 137.610952,179.610064 C134.6085,181.421155 131.241808,182.350285 127.822154,182.350285 L127.822154,182.350285 Z" id="Fill-125" fill="#3AC5FC"></path>
                    <path d="M80.7092308,57.8675751 C80.4862212,57.8675751 80.2595769,57.8263669 80.0396827,57.7392852 C79.106625,57.3694473 78.6504808,56.3151373 79.0204327,55.3836746 C80.5233462,51.6028793 84.1283654,49.160187 88.2048462,49.160187 L88.3429615,49.1609645 C89.0961058,49.1713314 89.8536635,49.2692982 90.5956442,49.4520142 L91.3482692,49.6373219 C92.3226058,49.8773148 92.9179038,50.8603527 92.6775,51.8332828 C92.4370962,52.8059538 91.4521154,53.399716 90.4777788,53.1602414 L89.7254135,52.9749337 C89.2513558,52.8583065 88.7697692,52.7958462 88.2936346,52.7891077 L88.2048462,52.7885893 C85.6276442,52.7885893 83.3487404,54.3324746 82.3990673,56.7217775 C82.1160865,57.4337219 81.4322596,57.8675751 80.7092308,57.8675751 Z M157.872635,76.8575964 C157.809548,76.8575964 157.746202,76.8544864 157.682337,76.8477479 C156.684115,76.7440793 155.95875,75.8522698 156.062596,74.855755 C156.084923,74.6414201 156.096346,74.4244935 156.096346,74.2109361 C156.096346,73.0819846 155.782731,71.9667692 155.18925,70.9860639 C154.322913,69.5549183 152.949808,68.5457041 151.322798,68.145284 L150.548106,67.9542746 C149.573769,67.7142817 148.978731,66.7309846 149.219135,65.7583136 C149.459798,64.7853834 150.445038,64.1918805 151.419115,64.4316142 L152.193548,64.6223645 C154.762702,65.2550024 156.931529,66.8486485 158.300221,69.1099207 C159.236135,70.656916 159.730962,72.4205787 159.730962,74.2109361 C159.730962,74.549155 159.713048,74.8922982 159.678,75.2307763 C159.580904,76.1635349 158.791673,76.8575964 157.872635,76.8575964 Z M74.7108173,81.8329136 C74.5667308,81.8329136 74.4203077,81.8158083 74.2741442,81.7797834 C73.2995481,81.5397905 72.7045096,80.5564935 72.9449135,79.5838225 L75.9089423,67.5901385 C76.1493462,66.6174675 77.1338077,66.0242237 78.1086635,66.2631799 C79.083,66.503432 79.6780385,67.4864698 79.4376346,68.4594 L76.4738654,80.4528249 C76.2695481,81.2798414 75.5273077,81.8329136 74.7108173,81.8329136 Z M152.020904,100.860256 C151.876817,100.860256 151.730394,100.842891 151.584231,100.807125 C150.609894,100.566873 150.014596,99.5838355 150.25526,98.6109053 L153.219288,86.6174805 C153.459433,85.6442911 154.445192,85.0510473 155.41875,85.2905219 C156.393087,85.5305148 156.988385,86.5138118 156.747721,87.4864828 L153.783692,99.4801669 C153.579375,100.306924 152.837394,100.860256 152.020904,100.860256 Z M68.7830192,105.820022 C68.6389327,105.820022 68.4925096,105.802658 68.3463462,105.766892 C67.3720096,105.52664 66.7769712,104.543602 67.017375,103.570931 L69.9811442,91.5772473 C70.2215481,90.6043172 71.2062692,90.0108142 72.1808654,90.2505479 C73.1554615,90.4905408 73.7505,91.4735787 73.5100962,92.4465089 L70.5460673,104.439934 C70.34175,105.26695 69.5995096,105.820022 68.7830192,105.820022 Z M146.093106,124.847364 C145.949019,124.847364 145.802596,124.83 145.656433,124.793975 C144.682096,124.553982 144.086798,123.570944 144.327462,122.598014 L147.29149,110.604589 C147.531894,109.631659 148.516875,109.038415 149.490952,109.277631 C150.465288,109.517624 151.060587,110.500662 150.819923,111.473592 L147.855894,123.467276 C147.651577,124.294033 146.909596,124.847364 146.093106,124.847364 Z M62.8554808,129.807391 C62.7113942,129.807391 62.5649712,129.790026 62.4188077,129.753742 C61.4442115,129.514008 60.8491731,128.53097 61.0895769,127.55804 L64.0536058,115.564356 C64.2940096,114.591944 65.2795096,113.997146 66.2533269,114.237657 C67.2276635,114.47765 67.8227019,115.460688 67.5822981,116.433618 L64.6185288,128.427043 C64.4142115,129.254059 63.6719712,129.807391 62.8554808,129.807391 Z M140.165567,148.834473 C140.021481,148.834473 139.875058,148.817109 139.728894,148.781084 C138.754558,148.541091 138.15926,147.558053 138.399923,146.585123 L141.363692,134.591698 C141.603837,133.618768 142.589337,133.023969 143.563154,133.26474 C144.53749,133.504733 145.132788,134.48777 144.892125,135.460701 L141.928356,147.454125 C141.724038,148.281142 140.982058,148.834473 140.165567,148.834473 L140.165567,148.834473 Z" id="Fill-126" fill="#3AC5FC"></path>
                    <path d="M58.336875,148.091428 C58.1927885,148.091428 58.0463654,148.074323 57.9002019,148.038039 C56.9256058,147.798305 56.3305673,146.815267 56.5709712,145.842337 L58.1258077,139.551465 C58.3662115,138.578535 59.3517115,137.983477 60.3255288,138.224766 C61.2998654,138.464759 61.8949038,139.447796 61.6545,140.420727 L60.0999231,146.71134 C59.8956058,147.538356 59.1533654,148.091428 58.336875,148.091428" id="Fill-127" fill="#3AC5FC"></path>
                    <path d="M135.644106,167.130433 C135.500019,167.130433 135.353596,167.113328 135.207433,167.077044 C134.233096,166.837051 133.637798,165.854272 133.878462,164.881342 L135.433038,158.59047 C135.673702,157.61754 136.658683,157.023 137.63276,157.26377 C138.606837,157.503763 139.202135,158.486801 138.961731,159.459731 L137.406894,165.750344 C137.202577,166.577361 136.460596,167.130433 135.644106,167.130433" id="Fill-128" fill="#3AC5FC"></path>
                    <path d="M132.456808,81.0354426 C131.850087,80.2369349 130.710375,80.0803953 129.91076,80.6858201 C129.860654,80.7239183 129.809769,80.7614982 129.758625,80.7983006 C129.758365,80.7983006 129.758106,80.7985598 129.757846,80.7988189 C129.615837,80.9009325 129.469154,80.9988994 129.322212,81.0901278 C128.469375,81.6183195 128.207163,82.7369041 128.736519,83.5882828 C129.08051,84.1416142 129.67425,84.4458817 130.282269,84.4458817 C130.609385,84.4458817 130.940394,84.3577633 131.238952,84.1727148 C131.45625,84.0382047 131.67251,83.8938462 131.88176,83.7432675 C131.882279,83.7430083 131.882798,83.7424899 131.883577,83.7419716 C131.958346,83.6880639 132.032856,83.6328604 132.106327,83.5773976 C132.906202,82.9719728 133.063269,81.8339503 132.456808,81.0354426" id="Fill-129" fill="#3AC5FC"></path>
                    <path d="M124.993644,84.0410556 C124.355769,84.0182485 123.710365,83.9301302 123.066,83.7715172 L107.707673,79.9889077 C102.665163,78.7472166 99.5858654,73.6596781 100.829942,68.6257882 L106.520452,45.5978734 C107.764529,40.5639834 112.860779,37.4899491 117.903288,38.7318994 L133.261615,42.5142497 C138.304125,43.7562 141.383423,48.8437385 140.139346,53.8776284 L134.448837,76.905284 C133.990615,78.7586201 124.993644,84.0410556 124.993644,84.0410556" id="Fill-130" fill="#FFFFFF"></path>
                    <path d="M124.994942,85.8552568 C124.972875,85.8552568 124.951067,85.8547385 124.929,85.8539609 C124.158462,85.8267479 123.385327,85.7186734 122.630625,85.5328473 L107.272298,81.750497 C104.362269,81.0338876 101.906048,79.2287574 100.355885,76.6676237 C98.8057212,74.1067491 98.3475,71.096471 99.0653365,68.1911574 L104.756106,45.1632426 C106.23825,39.1665302 112.331683,35.4917361 118.338404,36.9703101 L133.696731,40.7529195 C139.704231,42.2325302 143.385837,48.3150284 141.903692,54.312 L136.213183,77.3399148 C135.972779,78.312845 134.988058,78.9060888 134.013462,78.6668734 C133.039125,78.4268805 132.443827,77.4435834 132.68449,76.4709124 L138.375,53.4429976 C138.860221,51.4787361 138.5505,49.4434615 137.502433,47.7121953 C136.454365,45.9806698 134.793606,44.7602308 132.82624,44.2758391 L117.467913,40.4932296 C113.407788,39.492568 109.286913,41.9777645 108.285058,46.0325041 L102.594288,69.0604189 C101.592433,73.1148994 104.081365,77.2274343 108.143048,78.2275775 L123.501375,82.0099278 C124.013337,82.1361444 124.53724,82.2094899 125.058288,82.2278911 C126.061183,82.2636568 126.845481,83.1041503 126.809654,84.1055893 C126.774865,85.0847396 125.9685,85.8552568 124.994942,85.8552568" id="Fill-131" fill="#3AC5FC"></path>
                    <path d="M107.795423,120.474621 C107.123798,120.474621 106.4475,120.392982 105.778731,120.228408 C103.611462,119.694774 101.781952,118.350192 100.627442,116.442948 C99.4731923,114.535704 99.1317981,112.293611 99.6663462,110.130046 C99.90675,109.157116 100.89199,108.563613 101.866067,108.803088 C102.840663,109.04308 103.435702,110.026118 103.195298,110.999049 C102.893106,112.22182 103.086,113.48891 103.738413,114.566546 C104.390827,115.644181 105.424615,116.404072 106.649221,116.705748 C107.873827,117.006646 109.142827,116.8146 110.222567,116.163302 C111.302567,115.512004 112.06324,114.480241 112.365433,113.25747 C112.605837,112.28454 113.591596,111.690259 114.565154,111.93077 C115.53949,112.170763 116.134788,113.153801 115.894125,114.126731 C115.359837,116.290037 114.012952,118.116419 112.102442,119.268955 C110.781519,120.065908 109.300154,120.474621 107.795423,120.474621" id="Fill-132" fill="#3AC5FC"></path>
                    <path d="M101.46574,98.192084 C101.321654,98.192084 101.17549,98.1747195 101.029067,98.1389538 C100.054731,97.8987018 99.4596923,96.9156639 99.7000962,95.9427337 C99.8779327,95.222755 99.7644808,94.4763408 99.38025,93.8416296 C98.9960192,93.2066592 98.3869615,92.759329 97.6654904,92.5817964 C96.9440192,92.4040047 96.1965865,92.5172627 95.5607885,92.9010959 C94.9249904,93.2846698 94.4768942,93.8924272 94.2987981,94.6126651 C94.0583942,95.5855953 93.0741923,96.1796166 92.0990769,95.9396237 C91.1244808,95.6996308 90.5294423,94.7165929 90.7698462,93.7436627 C91.1802981,92.0823728 92.2143462,90.6802544 93.6811731,89.7954426 C95.1482596,88.9106308 96.8721058,88.6491266 98.5362404,89.0588769 C100.200115,89.4686272 101.604635,90.5006485 102.490962,91.9652272 C103.377288,93.4295467 103.6395,95.1507053 103.228788,96.8119953 C103.024471,97.6387527 102.28249,98.192084 101.46574,98.192084" id="Fill-133" fill="#3AC5FC"></path>
                    <path d="M129.641279,105.130885 C129.497192,105.130885 129.350769,105.11378 129.204606,105.077755 C128.23001,104.837762 127.634971,103.854465 127.875635,102.881794 C128.053471,102.161556 127.940019,101.415401 127.555529,100.78069 C127.171558,100.14572 126.5625,99.6983893 125.841288,99.5208568 C124.350837,99.1530923 122.841692,100.065117 122.474077,101.551725 C122.233413,102.524656 121.248692,103.11764 120.274356,102.878425 C119.29976,102.638432 118.704721,101.655394 118.945385,100.682464 C119.792769,97.2536237 123.274731,95.1520012 126.711779,95.9979373 C128.375654,96.4076876 129.779913,97.439968 130.6665,98.9042876 C131.552827,100.368607 131.814779,102.089766 131.404067,103.750796 C131.19975,104.577813 130.457769,105.130885 129.641279,105.130885" id="Fill-134" fill="#3AC5FC"></path>
                    <path d="M119.630769,73.1532568 C118.946163,73.1532568 118.256885,73.0692852 117.575394,72.899787 C113.063538,71.7767964 110.307981,67.1985302 111.432894,62.6941278 C111.679788,61.7053882 112.096731,60.7819598 112.672038,59.9497598 C113.078856,59.3606627 113.887038,59.2124166 114.477663,59.6190568 C115.067769,60.025697 115.21601,60.8324982 114.808933,61.4215953 C114.411202,61.996697 114.123029,62.6358142 113.951942,63.3210639 C113.173356,66.4388982 115.08049,69.6077893 118.203663,70.385045 C119.716183,70.7613621 121.285298,70.5275893 122.622058,69.7257124 C123.958558,68.9240947 124.902,67.6507846 125.279481,66.1405917 C125.656702,64.6303988 125.42201,63.0639657 124.619279,61.7297503 C123.816288,60.3955349 122.540798,59.4534462 121.02776,59.0768698 C120.173885,58.8643491 119.308327,58.8446521 118.454192,59.0185562 C117.751673,59.1613598 117.066029,58.7088462 116.922721,58.007787 C116.779413,57.3064686 117.232962,56.6219964 117.935221,56.4789337 C119.17151,56.2275373 120.423635,56.2555278 121.656029,56.5621278 C123.841471,57.106129 125.684221,58.4672982 126.844442,60.3947574 C128.004923,62.3224757 128.343462,64.5855621 127.798529,66.767787 C127.253596,68.9494935 125.890096,70.7890935 123.959337,71.9473314 C122.630106,72.7445432 121.14199,73.1532568 119.630769,73.1532568" id="Fill-135" fill="#3AC5FC"></path>
                </g>
            </g>
        </g>
    </g>
</svg>